%TF.GenerationSoftware,KiCad,Pcbnew,9.0.5*%
%TF.CreationDate,2025-12-11T15:04:41+05:30*%
%TF.ProjectId,water_level,77617465-725f-46c6-9576-656c2e6b6963,rev?*%
%TF.SameCoordinates,Original*%
%TF.FileFunction,Copper,L1,Top*%
%TF.FilePolarity,Positive*%
%FSLAX46Y46*%
G04 Gerber Fmt 4.6, Leading zero omitted, Abs format (unit mm)*
G04 Created by KiCad (PCBNEW 9.0.5) date 2025-12-11 15:04:41*
%MOMM*%
%LPD*%
G01*
G04 APERTURE LIST*
G04 Aperture macros list*
%AMRoundRect*
0 Rectangle with rounded corners*
0 $1 Rounding radius*
0 $2 $3 $4 $5 $6 $7 $8 $9 X,Y pos of 4 corners*
0 Add a 4 corners polygon primitive as box body*
4,1,4,$2,$3,$4,$5,$6,$7,$8,$9,$2,$3,0*
0 Add four circle primitives for the rounded corners*
1,1,$1+$1,$2,$3*
1,1,$1+$1,$4,$5*
1,1,$1+$1,$6,$7*
1,1,$1+$1,$8,$9*
0 Add four rect primitives between the rounded corners*
20,1,$1+$1,$2,$3,$4,$5,0*
20,1,$1+$1,$4,$5,$6,$7,0*
20,1,$1+$1,$6,$7,$8,$9,0*
20,1,$1+$1,$8,$9,$2,$3,0*%
G04 Aperture macros list end*
%TA.AperFunction,ComponentPad*%
%ADD10RoundRect,0.275000X0.275000X0.625000X-0.275000X0.625000X-0.275000X-0.625000X0.275000X-0.625000X0*%
%TD*%
%TA.AperFunction,ComponentPad*%
%ADD11RoundRect,0.275000X-0.275000X-0.625000X0.275000X-0.625000X0.275000X0.625000X-0.275000X0.625000X0*%
%TD*%
%TA.AperFunction,ComponentPad*%
%ADD12R,1.100000X1.800000*%
%TD*%
%TA.AperFunction,ComponentPad*%
%ADD13C,1.600000*%
%TD*%
%TA.AperFunction,ComponentPad*%
%ADD14C,3.800000*%
%TD*%
%TA.AperFunction,ComponentPad*%
%ADD15C,2.000000*%
%TD*%
%TA.AperFunction,ComponentPad*%
%ADD16RoundRect,0.250000X0.650000X0.650000X-0.650000X0.650000X-0.650000X-0.650000X0.650000X-0.650000X0*%
%TD*%
%TA.AperFunction,ComponentPad*%
%ADD17C,1.800000*%
%TD*%
%TA.AperFunction,ComponentPad*%
%ADD18R,2.000000X1.905000*%
%TD*%
%TA.AperFunction,ComponentPad*%
%ADD19O,2.000000X1.905000*%
%TD*%
%TA.AperFunction,ComponentPad*%
%ADD20C,3.000000*%
%TD*%
%TA.AperFunction,ComponentPad*%
%ADD21C,2.500000*%
%TD*%
%TA.AperFunction,ComponentPad*%
%ADD22RoundRect,0.250001X-0.949999X0.949999X-0.949999X-0.949999X0.949999X-0.949999X0.949999X0.949999X0*%
%TD*%
%TA.AperFunction,ComponentPad*%
%ADD23C,2.400000*%
%TD*%
%TA.AperFunction,ComponentPad*%
%ADD24R,1.800000X1.800000*%
%TD*%
%TA.AperFunction,ComponentPad*%
%ADD25RoundRect,0.250000X-0.650000X0.650000X-0.650000X-0.650000X0.650000X-0.650000X0.650000X0.650000X0*%
%TD*%
%TA.AperFunction,ViaPad*%
%ADD26C,6.000000*%
%TD*%
%TA.AperFunction,Conductor*%
%ADD27C,1.000000*%
%TD*%
%TA.AperFunction,Profile*%
%ADD28C,0.050000*%
%TD*%
G04 APERTURE END LIST*
D10*
%TO.P,Q1,2,E*%
%TO.N,GND*%
X155270000Y-89416000D03*
D11*
%TO.P,Q1,3,C*%
%TO.N,Net-(D5-A)*%
X152730000Y-89416000D03*
D12*
%TO.P,Q1,1,B*%
%TO.N,Net-(Q1-B)*%
X154000000Y-87600000D03*
%TD*%
D13*
%TO.P,R1,1*%
%TO.N,Net-(J3-Pin_5)*%
X148420000Y-98000000D03*
%TO.P,R1,2*%
%TO.N,Net-(Q1-B)*%
X158580000Y-98000000D03*
%TD*%
%TO.P,C2,1*%
%TO.N,Net-(D5-K)*%
X140500000Y-108000000D03*
%TO.P,C2,2*%
%TO.N,GND*%
X140500000Y-113000000D03*
%TD*%
D14*
%TO.P,H1,1,1*%
%TO.N,Net-(D5-K)*%
X148500000Y-109500000D03*
%TD*%
D15*
%TO.P,C3,1*%
%TO.N,Net-(D1-K)*%
X150500000Y-122500000D03*
%TO.P,C3,2*%
%TO.N,GND*%
X150500000Y-117500000D03*
%TD*%
D16*
%TO.P,D2,1,K*%
%TO.N,Net-(D1-A)*%
X168080000Y-122500000D03*
D17*
%TO.P,D2,2,A*%
%TO.N,GND*%
X157920000Y-122500000D03*
%TD*%
D16*
%TO.P,D4,1,K*%
%TO.N,Net-(D1-K)*%
X182080000Y-117000000D03*
D17*
%TO.P,D4,2,A*%
%TO.N,Net-(D3-K)*%
X171920000Y-117000000D03*
%TD*%
D18*
%TO.P,U1,1,VI*%
%TO.N,Net-(D1-K)*%
X127450000Y-119040000D03*
D19*
%TO.P,U1,2,GND*%
%TO.N,GND*%
X127450000Y-116500000D03*
%TO.P,U1,3,VO*%
%TO.N,Net-(D5-K)*%
X127450000Y-113960000D03*
%TD*%
D14*
%TO.P,H6,1,1*%
%TO.N,Net-(D3-K)*%
X180000000Y-103000000D03*
%TD*%
D20*
%TO.P,K1,1*%
%TO.N,Net-(J3-Pin_3)*%
X139500000Y-72500000D03*
D21*
%TO.P,K1,2*%
%TO.N,Net-(D5-A)*%
X141450000Y-78550000D03*
D20*
%TO.P,K1,3*%
%TO.N,Net-(J3-Pin_4)*%
X153650000Y-78550000D03*
%TO.P,K1,4*%
%TO.N,unconnected-(K1-Pad4)*%
X153700000Y-66500000D03*
D21*
%TO.P,K1,5*%
%TO.N,Net-(D5-K)*%
X141450000Y-66550000D03*
%TD*%
D20*
%TO.P,Transformer_AMD1,0*%
%TO.N,N/C*%
X196668000Y-118748000D03*
X196922000Y-63630000D03*
%TO.P,Transformer_AMD1,1*%
%TO.N,Net-(J3-Pin_1)*%
X205812000Y-97412000D03*
%TO.P,Transformer_AMD1,2*%
%TO.N,Net-(J3-Pin_2)*%
X205812000Y-84966000D03*
%TO.P,Transformer_AMD1,3*%
%TO.N,Net-(D3-K)*%
X186000000Y-80648000D03*
%TO.P,Transformer_AMD1,4*%
%TO.N,unconnected-(Transformer_AMD1-Pad4)*%
X185746000Y-91316000D03*
%TO.P,Transformer_AMD1,5*%
%TO.N,Net-(D1-A)*%
X186000000Y-103000000D03*
%TD*%
D14*
%TO.P,H4,1,1*%
%TO.N,Net-(J3-Pin_2)*%
X180000000Y-78000000D03*
%TD*%
D16*
%TO.P,D3,1,K*%
%TO.N,Net-(D3-K)*%
X168080000Y-117000000D03*
D17*
%TO.P,D3,2,A*%
%TO.N,GND*%
X157920000Y-117000000D03*
%TD*%
D22*
%TO.P,J3,1,Pin_1*%
%TO.N,Net-(J3-Pin_1)*%
X104000000Y-84500000D03*
D23*
%TO.P,J3,2,Pin_2*%
%TO.N,Net-(J3-Pin_2)*%
X104000000Y-88000000D03*
%TO.P,J3,3,Pin_3*%
%TO.N,Net-(J3-Pin_3)*%
X104000000Y-91500000D03*
%TO.P,J3,4,Pin_4*%
%TO.N,Net-(J3-Pin_4)*%
X104000000Y-95000000D03*
%TO.P,J3,5,Pin_5*%
%TO.N,Net-(J3-Pin_5)*%
X104000000Y-98500000D03*
%TO.P,J3,6,Pin_6*%
%TO.N,Net-(D5-K)*%
X104000000Y-102000000D03*
%TD*%
D14*
%TO.P,H3,1,1*%
%TO.N,Net-(J3-Pin_1)*%
X180000000Y-71000000D03*
%TD*%
D24*
%TO.P,D6,1,K*%
%TO.N,Net-(D6-K)*%
X165000000Y-88460000D03*
D17*
%TO.P,D6,2,A*%
%TO.N,Net-(D5-K)*%
X165000000Y-91000000D03*
%TD*%
D13*
%TO.P,R2,1*%
%TO.N,Net-(D7-K)*%
X158500000Y-102000000D03*
%TO.P,R2,2*%
%TO.N,GND*%
X148340000Y-102000000D03*
%TD*%
D14*
%TO.P,H5,1,1*%
%TO.N,Net-(D1-A)*%
X180000000Y-109000000D03*
%TD*%
D25*
%TO.P,D5,1,K*%
%TO.N,Net-(D5-K)*%
X166500000Y-66920000D03*
D17*
%TO.P,D5,2,A*%
%TO.N,Net-(D5-A)*%
X166500000Y-77080000D03*
%TD*%
D13*
%TO.P,C1,1*%
%TO.N,Net-(D1-K)*%
X140500000Y-125000000D03*
%TO.P,C1,2*%
%TO.N,GND*%
X140500000Y-120000000D03*
%TD*%
%TO.P,R3,1*%
%TO.N,Net-(D5-A)*%
X148420000Y-93500000D03*
%TO.P,R3,2*%
%TO.N,Net-(D6-K)*%
X158580000Y-93500000D03*
%TD*%
D14*
%TO.P,H2,1,1*%
%TO.N,Net-(D5-K)*%
X143500000Y-102500000D03*
%TD*%
D16*
%TO.P,D1,1,K*%
%TO.N,Net-(D1-K)*%
X182000000Y-122500000D03*
D17*
%TO.P,D1,2,A*%
%TO.N,Net-(D1-A)*%
X171840000Y-122500000D03*
%TD*%
D24*
%TO.P,D7,1,K*%
%TO.N,Net-(D7-K)*%
X165000000Y-94460000D03*
D17*
%TO.P,D7,2,A*%
%TO.N,Net-(D5-K)*%
X165000000Y-97000000D03*
%TD*%
D26*
%TO.N,*%
X196668000Y-118748000D03*
X106000000Y-121500000D03*
X106000000Y-62500000D03*
X214000000Y-62500000D03*
X214000000Y-121500000D03*
X196922000Y-63630000D03*
%TD*%
D27*
%TO.N,Net-(D5-K)*%
X143500000Y-102500000D02*
X143500000Y-104500000D01*
X143500000Y-104500000D02*
X148500000Y-109500000D01*
%TD*%
D28*
X212000000Y-113000000D02*
X183000000Y-113000000D01*
X100000000Y-55000000D02*
X100000000Y-128000000D01*
X220000000Y-128000000D02*
X212000000Y-128000000D01*
X220000000Y-70000000D02*
X220000000Y-55000000D01*
X212000000Y-113000000D02*
X220000000Y-113000000D01*
X100000000Y-128000000D02*
X212000000Y-128000000D01*
X212000000Y-70000000D02*
X220000000Y-70000000D01*
X100000000Y-55000000D02*
X212000000Y-55000000D01*
X212000000Y-55000000D02*
X220000000Y-55000000D01*
X183000000Y-70000000D02*
X183000000Y-113000000D01*
X220000000Y-113000000D02*
X220000000Y-128000000D01*
X212000000Y-70000000D02*
X183000000Y-70000000D01*
M02*
