%TF.GenerationSoftware,KiCad,Pcbnew,9.0.5*%
%TF.CreationDate,2025-12-11T15:04:41+05:30*%
%TF.ProjectId,water_level,77617465-725f-46c6-9576-656c2e6b6963,rev?*%
%TF.SameCoordinates,Original*%
%TF.FileFunction,Copper,L2,Bot*%
%TF.FilePolarity,Positive*%
%FSLAX46Y46*%
G04 Gerber Fmt 4.6, Leading zero omitted, Abs format (unit mm)*
G04 Created by KiCad (PCBNEW 9.0.5) date 2025-12-11 15:04:41*
%MOMM*%
%LPD*%
G01*
G04 APERTURE LIST*
G04 Aperture macros list*
%AMRoundRect*
0 Rectangle with rounded corners*
0 $1 Rounding radius*
0 $2 $3 $4 $5 $6 $7 $8 $9 X,Y pos of 4 corners*
0 Add a 4 corners polygon primitive as box body*
4,1,4,$2,$3,$4,$5,$6,$7,$8,$9,$2,$3,0*
0 Add four circle primitives for the rounded corners*
1,1,$1+$1,$2,$3*
1,1,$1+$1,$4,$5*
1,1,$1+$1,$6,$7*
1,1,$1+$1,$8,$9*
0 Add four rect primitives between the rounded corners*
20,1,$1+$1,$2,$3,$4,$5,0*
20,1,$1+$1,$4,$5,$6,$7,0*
20,1,$1+$1,$6,$7,$8,$9,0*
20,1,$1+$1,$8,$9,$2,$3,0*%
G04 Aperture macros list end*
%TA.AperFunction,ComponentPad*%
%ADD10RoundRect,0.275000X0.275000X0.625000X-0.275000X0.625000X-0.275000X-0.625000X0.275000X-0.625000X0*%
%TD*%
%TA.AperFunction,ComponentPad*%
%ADD11RoundRect,0.275000X-0.275000X-0.625000X0.275000X-0.625000X0.275000X0.625000X-0.275000X0.625000X0*%
%TD*%
%TA.AperFunction,ComponentPad*%
%ADD12R,1.100000X1.800000*%
%TD*%
%TA.AperFunction,ComponentPad*%
%ADD13C,1.600000*%
%TD*%
%TA.AperFunction,ComponentPad*%
%ADD14C,3.800000*%
%TD*%
%TA.AperFunction,ComponentPad*%
%ADD15C,2.000000*%
%TD*%
%TA.AperFunction,ComponentPad*%
%ADD16RoundRect,0.250000X0.650000X0.650000X-0.650000X0.650000X-0.650000X-0.650000X0.650000X-0.650000X0*%
%TD*%
%TA.AperFunction,ComponentPad*%
%ADD17C,1.800000*%
%TD*%
%TA.AperFunction,ComponentPad*%
%ADD18R,2.000000X1.905000*%
%TD*%
%TA.AperFunction,ComponentPad*%
%ADD19O,2.000000X1.905000*%
%TD*%
%TA.AperFunction,ComponentPad*%
%ADD20C,3.000000*%
%TD*%
%TA.AperFunction,ComponentPad*%
%ADD21C,2.500000*%
%TD*%
%TA.AperFunction,ComponentPad*%
%ADD22RoundRect,0.250001X-0.949999X0.949999X-0.949999X-0.949999X0.949999X-0.949999X0.949999X0.949999X0*%
%TD*%
%TA.AperFunction,ComponentPad*%
%ADD23C,2.400000*%
%TD*%
%TA.AperFunction,ComponentPad*%
%ADD24R,1.800000X1.800000*%
%TD*%
%TA.AperFunction,ComponentPad*%
%ADD25RoundRect,0.250000X-0.650000X0.650000X-0.650000X-0.650000X0.650000X-0.650000X0.650000X0.650000X0*%
%TD*%
%TA.AperFunction,ViaPad*%
%ADD26C,6.000000*%
%TD*%
%TA.AperFunction,Conductor*%
%ADD27C,1.000000*%
%TD*%
%TA.AperFunction,Conductor*%
%ADD28C,3.000000*%
%TD*%
%TA.AperFunction,Profile*%
%ADD29C,0.050000*%
%TD*%
G04 APERTURE END LIST*
D10*
%TO.P,Q1,2,E*%
%TO.N,GND*%
X155270000Y-89416000D03*
D11*
%TO.P,Q1,3,C*%
%TO.N,Net-(D5-A)*%
X152730000Y-89416000D03*
D12*
%TO.P,Q1,1,B*%
%TO.N,Net-(Q1-B)*%
X154000000Y-87600000D03*
%TD*%
D13*
%TO.P,R1,1*%
%TO.N,Net-(J3-Pin_5)*%
X148420000Y-98000000D03*
%TO.P,R1,2*%
%TO.N,Net-(Q1-B)*%
X158580000Y-98000000D03*
%TD*%
%TO.P,C2,1*%
%TO.N,Net-(D5-K)*%
X140500000Y-108000000D03*
%TO.P,C2,2*%
%TO.N,GND*%
X140500000Y-113000000D03*
%TD*%
D14*
%TO.P,H1,1,1*%
%TO.N,Net-(D5-K)*%
X148500000Y-109500000D03*
%TD*%
D15*
%TO.P,C3,1*%
%TO.N,Net-(D1-K)*%
X150500000Y-122500000D03*
%TO.P,C3,2*%
%TO.N,GND*%
X150500000Y-117500000D03*
%TD*%
D16*
%TO.P,D2,1,K*%
%TO.N,Net-(D1-A)*%
X168080000Y-122500000D03*
D17*
%TO.P,D2,2,A*%
%TO.N,GND*%
X157920000Y-122500000D03*
%TD*%
D16*
%TO.P,D4,1,K*%
%TO.N,Net-(D1-K)*%
X182080000Y-117000000D03*
D17*
%TO.P,D4,2,A*%
%TO.N,Net-(D3-K)*%
X171920000Y-117000000D03*
%TD*%
D18*
%TO.P,U1,1,VI*%
%TO.N,Net-(D1-K)*%
X127450000Y-119040000D03*
D19*
%TO.P,U1,2,GND*%
%TO.N,GND*%
X127450000Y-116500000D03*
%TO.P,U1,3,VO*%
%TO.N,Net-(D5-K)*%
X127450000Y-113960000D03*
%TD*%
D14*
%TO.P,H6,1,1*%
%TO.N,Net-(D3-K)*%
X180000000Y-103000000D03*
%TD*%
D20*
%TO.P,K1,1*%
%TO.N,Net-(J3-Pin_3)*%
X139500000Y-72500000D03*
D21*
%TO.P,K1,2*%
%TO.N,Net-(D5-A)*%
X141450000Y-78550000D03*
D20*
%TO.P,K1,3*%
%TO.N,Net-(J3-Pin_4)*%
X153650000Y-78550000D03*
%TO.P,K1,4*%
%TO.N,unconnected-(K1-Pad4)*%
X153700000Y-66500000D03*
D21*
%TO.P,K1,5*%
%TO.N,Net-(D5-K)*%
X141450000Y-66550000D03*
%TD*%
D20*
%TO.P,Transformer_AMD1,0*%
%TO.N,N/C*%
X196668000Y-118748000D03*
X196922000Y-63630000D03*
%TO.P,Transformer_AMD1,1*%
%TO.N,Net-(J3-Pin_1)*%
X205812000Y-97412000D03*
%TO.P,Transformer_AMD1,2*%
%TO.N,Net-(J3-Pin_2)*%
X205812000Y-84966000D03*
%TO.P,Transformer_AMD1,3*%
%TO.N,Net-(D3-K)*%
X186000000Y-80648000D03*
%TO.P,Transformer_AMD1,4*%
%TO.N,unconnected-(Transformer_AMD1-Pad4)*%
X185746000Y-91316000D03*
%TO.P,Transformer_AMD1,5*%
%TO.N,Net-(D1-A)*%
X186000000Y-103000000D03*
%TD*%
D14*
%TO.P,H4,1,1*%
%TO.N,Net-(J3-Pin_2)*%
X180000000Y-78000000D03*
%TD*%
D16*
%TO.P,D3,1,K*%
%TO.N,Net-(D3-K)*%
X168080000Y-117000000D03*
D17*
%TO.P,D3,2,A*%
%TO.N,GND*%
X157920000Y-117000000D03*
%TD*%
D22*
%TO.P,J3,1,Pin_1*%
%TO.N,Net-(J3-Pin_1)*%
X104000000Y-84500000D03*
D23*
%TO.P,J3,2,Pin_2*%
%TO.N,Net-(J3-Pin_2)*%
X104000000Y-88000000D03*
%TO.P,J3,3,Pin_3*%
%TO.N,Net-(J3-Pin_3)*%
X104000000Y-91500000D03*
%TO.P,J3,4,Pin_4*%
%TO.N,Net-(J3-Pin_4)*%
X104000000Y-95000000D03*
%TO.P,J3,5,Pin_5*%
%TO.N,Net-(J3-Pin_5)*%
X104000000Y-98500000D03*
%TO.P,J3,6,Pin_6*%
%TO.N,Net-(D5-K)*%
X104000000Y-102000000D03*
%TD*%
D14*
%TO.P,H3,1,1*%
%TO.N,Net-(J3-Pin_1)*%
X180000000Y-71000000D03*
%TD*%
D24*
%TO.P,D6,1,K*%
%TO.N,Net-(D6-K)*%
X165000000Y-88460000D03*
D17*
%TO.P,D6,2,A*%
%TO.N,Net-(D5-K)*%
X165000000Y-91000000D03*
%TD*%
D13*
%TO.P,R2,1*%
%TO.N,Net-(D7-K)*%
X158500000Y-102000000D03*
%TO.P,R2,2*%
%TO.N,GND*%
X148340000Y-102000000D03*
%TD*%
D14*
%TO.P,H5,1,1*%
%TO.N,Net-(D1-A)*%
X180000000Y-109000000D03*
%TD*%
D25*
%TO.P,D5,1,K*%
%TO.N,Net-(D5-K)*%
X166500000Y-66920000D03*
D17*
%TO.P,D5,2,A*%
%TO.N,Net-(D5-A)*%
X166500000Y-77080000D03*
%TD*%
D13*
%TO.P,C1,1*%
%TO.N,Net-(D1-K)*%
X140500000Y-125000000D03*
%TO.P,C1,2*%
%TO.N,GND*%
X140500000Y-120000000D03*
%TD*%
%TO.P,R3,1*%
%TO.N,Net-(D5-A)*%
X148420000Y-93500000D03*
%TO.P,R3,2*%
%TO.N,Net-(D6-K)*%
X158580000Y-93500000D03*
%TD*%
D14*
%TO.P,H2,1,1*%
%TO.N,Net-(D5-K)*%
X143500000Y-102500000D03*
%TD*%
D16*
%TO.P,D1,1,K*%
%TO.N,Net-(D1-K)*%
X182000000Y-122500000D03*
D17*
%TO.P,D1,2,A*%
%TO.N,Net-(D1-A)*%
X171840000Y-122500000D03*
%TD*%
D24*
%TO.P,D7,1,K*%
%TO.N,Net-(D7-K)*%
X165000000Y-94460000D03*
D17*
%TO.P,D7,2,A*%
%TO.N,Net-(D5-K)*%
X165000000Y-97000000D03*
%TD*%
D26*
%TO.N,*%
X196668000Y-118748000D03*
X106000000Y-121500000D03*
X106000000Y-62500000D03*
X214000000Y-62500000D03*
X214000000Y-121500000D03*
X196922000Y-63630000D03*
%TD*%
D27*
%TO.N,Net-(D5-A)*%
X156771000Y-77080000D02*
X155851000Y-78000000D01*
X166500000Y-77080000D02*
X156771000Y-77080000D01*
X155851000Y-78000000D02*
X155851000Y-77638316D01*
X152730000Y-89190000D02*
X148420000Y-93500000D01*
X152730000Y-89016000D02*
X152730000Y-89190000D01*
%TO.N,Net-(Q1-B)*%
X157079000Y-88937108D02*
X157079000Y-96499000D01*
X157079000Y-96499000D02*
X158580000Y-98000000D01*
X155956892Y-87815000D02*
X157079000Y-88937108D01*
X154185000Y-87815000D02*
X155956892Y-87815000D01*
X154000000Y-88000000D02*
X154185000Y-87815000D01*
%TO.N,GND*%
X155270000Y-95070000D02*
X148340000Y-102000000D01*
X155270000Y-89016000D02*
X155270000Y-95070000D01*
%TO.N,Net-(D5-A)*%
X148420000Y-93500000D02*
X148420000Y-86892684D01*
%TO.N,Net-(D1-K)*%
X182000000Y-117080000D02*
X182080000Y-117000000D01*
X127450000Y-119040000D02*
X134540000Y-119040000D01*
X150500000Y-122500000D02*
X148500000Y-122500000D01*
X150500000Y-122500000D02*
X154000000Y-126000000D01*
X148500000Y-122500000D02*
X146000000Y-125000000D01*
X134540000Y-119040000D02*
X140500000Y-125000000D01*
X178000000Y-126000000D02*
X181500000Y-122500000D01*
X181500000Y-122500000D02*
X182000000Y-122500000D01*
X182000000Y-122500000D02*
X182000000Y-117080000D01*
X154000000Y-126000000D02*
X178000000Y-126000000D01*
X146000000Y-125000000D02*
X140500000Y-125000000D01*
%TO.N,GND*%
X157920000Y-117000000D02*
X157920000Y-122500000D01*
X138000000Y-113000000D02*
X134500000Y-116500000D01*
X134500000Y-116500000D02*
X127450000Y-116500000D01*
X140500000Y-113000000D02*
X138000000Y-113000000D01*
X140500000Y-113000000D02*
X148340000Y-105160000D01*
X148340000Y-105160000D02*
X148340000Y-102000000D01*
X157420000Y-117500000D02*
X157920000Y-117000000D01*
X140500000Y-120000000D02*
X148000000Y-120000000D01*
X148000000Y-120000000D02*
X150500000Y-117500000D01*
X150500000Y-117500000D02*
X157420000Y-117500000D01*
X140500000Y-113000000D02*
X140500000Y-120000000D01*
%TO.N,Net-(D1-A)*%
X168080000Y-122500000D02*
X171840000Y-122500000D01*
X180000000Y-114340000D02*
X180000000Y-109000000D01*
X171840000Y-122500000D02*
X180000000Y-114340000D01*
%TO.N,Net-(D3-K)*%
X171920000Y-117000000D02*
X168080000Y-117000000D01*
X171920000Y-111080000D02*
X180000000Y-103000000D01*
X171920000Y-117000000D02*
X171920000Y-111080000D01*
%TO.N,Net-(D6-K)*%
X158580000Y-93500000D02*
X159960000Y-93500000D01*
X159960000Y-93500000D02*
X165000000Y-88460000D01*
D28*
%TO.N,Net-(J3-Pin_2)*%
X173000000Y-71000000D02*
X180000000Y-78000000D01*
X106000000Y-88000000D02*
X133000000Y-61000000D01*
X173000000Y-61000000D02*
X173000000Y-71000000D01*
X104000000Y-88000000D02*
X106000000Y-88000000D01*
X133000000Y-61000000D02*
X173000000Y-61000000D01*
D27*
%TO.N,Net-(J3-Pin_5)*%
X104000000Y-98500000D02*
X147920000Y-98500000D01*
X147920000Y-98500000D02*
X148420000Y-98000000D01*
D28*
%TO.N,Net-(J3-Pin_1)*%
X180000000Y-71000000D02*
X180000000Y-61000000D01*
X131500000Y-57000000D02*
X104000000Y-84500000D01*
X180000000Y-61000000D02*
X176000000Y-57000000D01*
X176000000Y-57000000D02*
X131500000Y-57000000D01*
%TO.N,Net-(J3-Pin_4)*%
X104000000Y-95000000D02*
X112000000Y-95000000D01*
X152450000Y-78550000D02*
X153650000Y-78550000D01*
X112000000Y-95000000D02*
X124000000Y-83000000D01*
X124000000Y-83000000D02*
X148000000Y-83000000D01*
X148000000Y-83000000D02*
X152450000Y-78550000D01*
%TO.N,Net-(J3-Pin_3)*%
X128500000Y-72500000D02*
X139500000Y-72500000D01*
X104000000Y-91500000D02*
X109500000Y-91500000D01*
X109500000Y-91500000D02*
X128500000Y-72500000D01*
D27*
%TO.N,Net-(D5-K)*%
X170000000Y-70420000D02*
X170000000Y-91000000D01*
X148500000Y-109500000D02*
X163500000Y-109500000D01*
X143601000Y-68701000D02*
X141450000Y-66550000D01*
X115490000Y-102000000D02*
X127450000Y-113960000D01*
X165000000Y-91000000D02*
X170000000Y-91000000D01*
X163500000Y-109500000D02*
X165000000Y-108000000D01*
X164719000Y-68701000D02*
X143601000Y-68701000D01*
X165662000Y-97000000D02*
X165000000Y-97000000D01*
X170000000Y-92662000D02*
X165662000Y-97000000D01*
X134540000Y-113960000D02*
X140500000Y-108000000D01*
X104000000Y-102000000D02*
X115490000Y-102000000D01*
X127450000Y-113960000D02*
X134540000Y-113960000D01*
X166500000Y-66920000D02*
X170000000Y-70420000D01*
X140500000Y-108000000D02*
X140500000Y-105500000D01*
X170000000Y-91000000D02*
X170000000Y-92662000D01*
X140500000Y-105500000D02*
X143500000Y-102500000D01*
X165000000Y-108000000D02*
X165000000Y-97000000D01*
X166500000Y-66920000D02*
X164719000Y-68701000D01*
%TO.N,Net-(D5-A)*%
X154561684Y-76349000D02*
X143651000Y-76349000D01*
X155851000Y-79461684D02*
X155851000Y-78000000D01*
X143651000Y-76349000D02*
X141450000Y-78550000D01*
X148420000Y-86892684D02*
X155851000Y-79461684D01*
X155851000Y-77638316D02*
X154561684Y-76349000D01*
%TO.N,Net-(D7-K)*%
X165000000Y-94460000D02*
X162000000Y-97460000D01*
X160000000Y-102000000D02*
X162000000Y-100000000D01*
X162000000Y-97460000D02*
X162000000Y-100000000D01*
X158500000Y-102000000D02*
X160000000Y-102000000D01*
%TO.N,Net-(D5-A)*%
X148420000Y-91328000D02*
X148420000Y-93500000D01*
%TD*%
%TA.AperFunction,Conductor*%
%TO.N,GND*%
G36*
X129230936Y-55520185D02*
G01*
X129276691Y-55572989D01*
X129286635Y-55642147D01*
X129257610Y-55705703D01*
X129251578Y-55712181D01*
X102584420Y-82379337D01*
X102548020Y-82404555D01*
X102430376Y-82457991D01*
X102430366Y-82457996D01*
X102245354Y-82586174D01*
X102245342Y-82586184D01*
X102086184Y-82745342D01*
X102086174Y-82745354D01*
X101957997Y-82930367D01*
X101957991Y-82930377D01*
X101864902Y-83135319D01*
X101864902Y-83135320D01*
X101843298Y-83221058D01*
X101828052Y-83256729D01*
X101808052Y-83288559D01*
X101686200Y-83541588D01*
X101593443Y-83806670D01*
X101593439Y-83806682D01*
X101530945Y-84080487D01*
X101530942Y-84080505D01*
X101499500Y-84359568D01*
X101499500Y-84640431D01*
X101530942Y-84919494D01*
X101530945Y-84919512D01*
X101593439Y-85193317D01*
X101593443Y-85193329D01*
X101686200Y-85458411D01*
X101808055Y-85711446D01*
X101808056Y-85711448D01*
X101828051Y-85743270D01*
X101843298Y-85778942D01*
X101864902Y-85864679D01*
X101864902Y-85864680D01*
X101957991Y-86069622D01*
X101957997Y-86069632D01*
X102083594Y-86250922D01*
X102105591Y-86317239D01*
X102088243Y-86384921D01*
X102078613Y-86398850D01*
X101957479Y-86550747D01*
X101957478Y-86550749D01*
X101808053Y-86788557D01*
X101686200Y-87041588D01*
X101593443Y-87306670D01*
X101593439Y-87306682D01*
X101530945Y-87580487D01*
X101530942Y-87580505D01*
X101499500Y-87859568D01*
X101499500Y-88140431D01*
X101530942Y-88419494D01*
X101530945Y-88419512D01*
X101593439Y-88693317D01*
X101593443Y-88693329D01*
X101686200Y-88958411D01*
X101808053Y-89211442D01*
X101808055Y-89211445D01*
X101957477Y-89449248D01*
X102060241Y-89578110D01*
X102134753Y-89671545D01*
X102133683Y-89672398D01*
X102161285Y-89730510D01*
X102152382Y-89799810D01*
X102134237Y-89828043D01*
X102134753Y-89828455D01*
X101957476Y-90050753D01*
X101808053Y-90288557D01*
X101686200Y-90541588D01*
X101593443Y-90806670D01*
X101593439Y-90806682D01*
X101530945Y-91080487D01*
X101530942Y-91080505D01*
X101499500Y-91359568D01*
X101499500Y-91640431D01*
X101530942Y-91919494D01*
X101530945Y-91919512D01*
X101593439Y-92193317D01*
X101593443Y-92193329D01*
X101686200Y-92458411D01*
X101808053Y-92711442D01*
X101808055Y-92711445D01*
X101957477Y-92949248D01*
X102008611Y-93013368D01*
X102134753Y-93171545D01*
X102133683Y-93172398D01*
X102161285Y-93230510D01*
X102152382Y-93299810D01*
X102134237Y-93328043D01*
X102134753Y-93328455D01*
X101957476Y-93550753D01*
X101808053Y-93788557D01*
X101686200Y-94041588D01*
X101593443Y-94306670D01*
X101593439Y-94306682D01*
X101530945Y-94580487D01*
X101530942Y-94580505D01*
X101499500Y-94859568D01*
X101499500Y-95140431D01*
X101530942Y-95419494D01*
X101530945Y-95419512D01*
X101593439Y-95693317D01*
X101593443Y-95693329D01*
X101686200Y-95958411D01*
X101808053Y-96211442D01*
X101808055Y-96211445D01*
X101957477Y-96449248D01*
X102088113Y-96613060D01*
X102112314Y-96643408D01*
X102132584Y-96668825D01*
X102331175Y-96867416D01*
X102331181Y-96867421D01*
X102333467Y-96869464D01*
X102370333Y-96928817D01*
X102369258Y-96998678D01*
X102344061Y-97043675D01*
X102342024Y-97045997D01*
X102166431Y-97274835D01*
X102166420Y-97274851D01*
X102022199Y-97524647D01*
X102022191Y-97524663D01*
X101911814Y-97791139D01*
X101911809Y-97791155D01*
X101837152Y-98069780D01*
X101837149Y-98069793D01*
X101799501Y-98355761D01*
X101799500Y-98355778D01*
X101799500Y-98644221D01*
X101799501Y-98644238D01*
X101837149Y-98930206D01*
X101837150Y-98930211D01*
X101837151Y-98930217D01*
X101906679Y-99189699D01*
X101911809Y-99208844D01*
X101911814Y-99208860D01*
X102022191Y-99475336D01*
X102022199Y-99475352D01*
X102166420Y-99725148D01*
X102166431Y-99725164D01*
X102342024Y-99954002D01*
X102342030Y-99954009D01*
X102548866Y-100160845D01*
X102547850Y-100161860D01*
X102582047Y-100215766D01*
X102581636Y-100285634D01*
X102547876Y-100338165D01*
X102548866Y-100339155D01*
X102342030Y-100545990D01*
X102342024Y-100545997D01*
X102166431Y-100774835D01*
X102166420Y-100774851D01*
X102022199Y-101024647D01*
X102022191Y-101024663D01*
X101911814Y-101291139D01*
X101911809Y-101291155D01*
X101842251Y-101550752D01*
X101837152Y-101569780D01*
X101837149Y-101569793D01*
X101799501Y-101855761D01*
X101799500Y-101855778D01*
X101799500Y-102144221D01*
X101799501Y-102144238D01*
X101837149Y-102430206D01*
X101837150Y-102430211D01*
X101837151Y-102430217D01*
X101904442Y-102681350D01*
X101911809Y-102708844D01*
X101911814Y-102708860D01*
X102022191Y-102975336D01*
X102022199Y-102975352D01*
X102166420Y-103225148D01*
X102166431Y-103225164D01*
X102342024Y-103454002D01*
X102342030Y-103454009D01*
X102545990Y-103657969D01*
X102545997Y-103657975D01*
X102691591Y-103769693D01*
X102774844Y-103833575D01*
X102774851Y-103833579D01*
X103024647Y-103977800D01*
X103024663Y-103977808D01*
X103291139Y-104088185D01*
X103291145Y-104088186D01*
X103291155Y-104088191D01*
X103569783Y-104162849D01*
X103855772Y-104200500D01*
X103855779Y-104200500D01*
X104144221Y-104200500D01*
X104144228Y-104200500D01*
X104430217Y-104162849D01*
X104708845Y-104088191D01*
X104708857Y-104088185D01*
X104708860Y-104088185D01*
X104975336Y-103977808D01*
X104975339Y-103977806D01*
X104975345Y-103977804D01*
X105225156Y-103833575D01*
X105454004Y-103657974D01*
X105575160Y-103536817D01*
X105636481Y-103503334D01*
X105662840Y-103500500D01*
X114817111Y-103500500D01*
X114884150Y-103520185D01*
X114904792Y-103536819D01*
X125418753Y-114050780D01*
X125452238Y-114112103D01*
X125454011Y-114122275D01*
X125467129Y-114221908D01*
X125482917Y-114341829D01*
X125514070Y-114458092D01*
X125549177Y-114589116D01*
X125647144Y-114825631D01*
X125647151Y-114825646D01*
X125775152Y-115047352D01*
X125931011Y-115250470D01*
X126112025Y-115431484D01*
X126112029Y-115431487D01*
X126112035Y-115431493D01*
X126190452Y-115491665D01*
X126231653Y-115548091D01*
X126235808Y-115617838D01*
X126215283Y-115662924D01*
X126160209Y-115738727D01*
X126056417Y-115942429D01*
X125985765Y-116159871D01*
X125971491Y-116250000D01*
X126959252Y-116250000D01*
X126937482Y-116287708D01*
X126900000Y-116427591D01*
X126900000Y-116572409D01*
X126937482Y-116712292D01*
X126959252Y-116750000D01*
X125971491Y-116750000D01*
X125985766Y-116840129D01*
X125985766Y-116840132D01*
X126053676Y-117049134D01*
X126055671Y-117118975D01*
X126019591Y-117178808D01*
X125993157Y-117197360D01*
X125896595Y-117247800D01*
X125896593Y-117247802D01*
X125738890Y-117376390D01*
X125623286Y-117518169D01*
X125610302Y-117534093D01*
X125608248Y-117538026D01*
X125516089Y-117714454D01*
X125489607Y-117807007D01*
X125462971Y-117900099D01*
X125460114Y-117910083D01*
X125460113Y-117910086D01*
X125449500Y-118029466D01*
X125449500Y-120050528D01*
X125449501Y-120050534D01*
X125460113Y-120169915D01*
X125516089Y-120365545D01*
X125516090Y-120365548D01*
X125516091Y-120365549D01*
X125610302Y-120545907D01*
X125641718Y-120584436D01*
X125738890Y-120703609D01*
X125832803Y-120780184D01*
X125896593Y-120832198D01*
X126076951Y-120926409D01*
X126272582Y-120982386D01*
X126391963Y-120993000D01*
X128508036Y-120992999D01*
X128627418Y-120982386D01*
X128823049Y-120926409D01*
X129003407Y-120832198D01*
X129161109Y-120703609D01*
X129256893Y-120586138D01*
X129314514Y-120546622D01*
X129352995Y-120540500D01*
X133867111Y-120540500D01*
X133934150Y-120560185D01*
X133954792Y-120576819D01*
X138706929Y-125328956D01*
X138739023Y-125384543D01*
X138791394Y-125579993D01*
X138881714Y-125798045D01*
X138881719Y-125798056D01*
X138952677Y-125920957D01*
X138999727Y-126002450D01*
X138999729Y-126002453D01*
X138999730Y-126002454D01*
X139143406Y-126189697D01*
X139143412Y-126189704D01*
X139310295Y-126356587D01*
X139310301Y-126356592D01*
X139497550Y-126500273D01*
X139628918Y-126576118D01*
X139701943Y-126618280D01*
X139701948Y-126618282D01*
X139701951Y-126618284D01*
X139920007Y-126708606D01*
X140147986Y-126769693D01*
X140381989Y-126800500D01*
X140381996Y-126800500D01*
X140618004Y-126800500D01*
X140618011Y-126800500D01*
X140852014Y-126769693D01*
X141079993Y-126708606D01*
X141298049Y-126618284D01*
X141298056Y-126618280D01*
X141473283Y-126517113D01*
X141535283Y-126500500D01*
X146118097Y-126500500D01*
X146351368Y-126463553D01*
X146575992Y-126390568D01*
X146786434Y-126283343D01*
X146977510Y-126144517D01*
X149065381Y-124056645D01*
X149126702Y-124023162D01*
X149196394Y-124028146D01*
X149228542Y-124045950D01*
X149316985Y-124113815D01*
X149386196Y-124166924D01*
X149613299Y-124298041D01*
X149613309Y-124298046D01*
X149835538Y-124390096D01*
X149855581Y-124398398D01*
X150108884Y-124466270D01*
X150338196Y-124496460D01*
X150402092Y-124524727D01*
X150409691Y-124531718D01*
X153022490Y-127144517D01*
X153202334Y-127275182D01*
X153244999Y-127330512D01*
X153250978Y-127400126D01*
X153218372Y-127461921D01*
X153157533Y-127496278D01*
X153129448Y-127499500D01*
X100624500Y-127499500D01*
X100557461Y-127479815D01*
X100511706Y-127427011D01*
X100500500Y-127375500D01*
X100500500Y-121303468D01*
X101999500Y-121303468D01*
X101999500Y-121696532D01*
X102008291Y-121785784D01*
X102038026Y-122087702D01*
X102114704Y-122473194D01*
X102114707Y-122473205D01*
X102228810Y-122849354D01*
X102379230Y-123212499D01*
X102379232Y-123212504D01*
X102564511Y-123559137D01*
X102564522Y-123559155D01*
X102782887Y-123885960D01*
X102782897Y-123885974D01*
X103032254Y-124189817D01*
X103310182Y-124467745D01*
X103310187Y-124467749D01*
X103310188Y-124467750D01*
X103614031Y-124717107D01*
X103940851Y-124935482D01*
X103940860Y-124935487D01*
X103940862Y-124935488D01*
X104287495Y-125120767D01*
X104287497Y-125120767D01*
X104287503Y-125120771D01*
X104650647Y-125271190D01*
X105026785Y-125385290D01*
X105026791Y-125385291D01*
X105026794Y-125385292D01*
X105026805Y-125385295D01*
X105412297Y-125461973D01*
X105803468Y-125500500D01*
X105803471Y-125500500D01*
X106196529Y-125500500D01*
X106196532Y-125500500D01*
X106587703Y-125461973D01*
X106662748Y-125447045D01*
X106973194Y-125385295D01*
X106973205Y-125385292D01*
X106973205Y-125385291D01*
X106973215Y-125385290D01*
X107349353Y-125271190D01*
X107712497Y-125120771D01*
X108059149Y-124935482D01*
X108385969Y-124717107D01*
X108689812Y-124467750D01*
X108967750Y-124189812D01*
X109217107Y-123885969D01*
X109435482Y-123559149D01*
X109620771Y-123212497D01*
X109771190Y-122849353D01*
X109885290Y-122473215D01*
X109885292Y-122473205D01*
X109885295Y-122473194D01*
X109961973Y-122087702D01*
X109974047Y-121965112D01*
X110000500Y-121696532D01*
X110000500Y-121303468D01*
X109961973Y-120912297D01*
X109946215Y-120833075D01*
X109885295Y-120526805D01*
X109885292Y-120526794D01*
X109885291Y-120526791D01*
X109885290Y-120526785D01*
X109771190Y-120150647D01*
X109620771Y-119787503D01*
X109585339Y-119721215D01*
X109435488Y-119440862D01*
X109435487Y-119440860D01*
X109435482Y-119440851D01*
X109217107Y-119114031D01*
X108967750Y-118810188D01*
X108967749Y-118810187D01*
X108967745Y-118810182D01*
X108689817Y-118532254D01*
X108385974Y-118282897D01*
X108385973Y-118282896D01*
X108385969Y-118282893D01*
X108059149Y-118064518D01*
X108059144Y-118064515D01*
X108059137Y-118064511D01*
X107712504Y-117879232D01*
X107712499Y-117879230D01*
X107349354Y-117728810D01*
X106973205Y-117614707D01*
X106973194Y-117614704D01*
X106587702Y-117538026D01*
X106293089Y-117509010D01*
X106196532Y-117499500D01*
X105803468Y-117499500D01*
X105714251Y-117508287D01*
X105412297Y-117538026D01*
X105026805Y-117614704D01*
X105026794Y-117614707D01*
X104650645Y-117728810D01*
X104287500Y-117879230D01*
X104287495Y-117879232D01*
X103940862Y-118064511D01*
X103940844Y-118064522D01*
X103614039Y-118282887D01*
X103614025Y-118282897D01*
X103310182Y-118532254D01*
X103032254Y-118810182D01*
X102782897Y-119114025D01*
X102782887Y-119114039D01*
X102564522Y-119440844D01*
X102564511Y-119440862D01*
X102379232Y-119787495D01*
X102379230Y-119787500D01*
X102228810Y-120150645D01*
X102114707Y-120526794D01*
X102114704Y-120526805D01*
X102038026Y-120912297D01*
X102011844Y-121178140D01*
X101999500Y-121303468D01*
X100500500Y-121303468D01*
X100500500Y-62303471D01*
X101999500Y-62303471D01*
X101999500Y-62696528D01*
X102038026Y-63087702D01*
X102114704Y-63473194D01*
X102114707Y-63473205D01*
X102228810Y-63849354D01*
X102304028Y-64030945D01*
X102368336Y-64186200D01*
X102379230Y-64212499D01*
X102379232Y-64212504D01*
X102564511Y-64559137D01*
X102564522Y-64559155D01*
X102782887Y-64885960D01*
X102782897Y-64885974D01*
X103032254Y-65189817D01*
X103310182Y-65467745D01*
X103310187Y-65467749D01*
X103310188Y-65467750D01*
X103614031Y-65717107D01*
X103940851Y-65935482D01*
X103940860Y-65935487D01*
X103940862Y-65935488D01*
X104287495Y-66120767D01*
X104287497Y-66120767D01*
X104287503Y-66120771D01*
X104650647Y-66271190D01*
X105026785Y-66385290D01*
X105026791Y-66385291D01*
X105026794Y-66385292D01*
X105026805Y-66385295D01*
X105412297Y-66461973D01*
X105803468Y-66500500D01*
X105803471Y-66500500D01*
X106196529Y-66500500D01*
X106196532Y-66500500D01*
X106587703Y-66461973D01*
X106662748Y-66447045D01*
X106973194Y-66385295D01*
X106973205Y-66385292D01*
X106973205Y-66385291D01*
X106973215Y-66385290D01*
X107349353Y-66271190D01*
X107712497Y-66120771D01*
X108059149Y-65935482D01*
X108385969Y-65717107D01*
X108689812Y-65467750D01*
X108967750Y-65189812D01*
X109217107Y-64885969D01*
X109435482Y-64559149D01*
X109620771Y-64212497D01*
X109771190Y-63849353D01*
X109885290Y-63473215D01*
X109885292Y-63473205D01*
X109885295Y-63473194D01*
X109961973Y-63087702D01*
X110000500Y-62696528D01*
X110000500Y-62303471D01*
X109961973Y-61912297D01*
X109885295Y-61526805D01*
X109885292Y-61526794D01*
X109885291Y-61526791D01*
X109885290Y-61526785D01*
X109771190Y-61150647D01*
X109620771Y-60787503D01*
X109510128Y-60580505D01*
X109435488Y-60440862D01*
X109435487Y-60440860D01*
X109435482Y-60440851D01*
X109217107Y-60114031D01*
X108967750Y-59810188D01*
X108967749Y-59810187D01*
X108967745Y-59810182D01*
X108689817Y-59532254D01*
X108385974Y-59282897D01*
X108385973Y-59282896D01*
X108385969Y-59282893D01*
X108059149Y-59064518D01*
X108059144Y-59064515D01*
X108059137Y-59064511D01*
X107712504Y-58879232D01*
X107712499Y-58879230D01*
X107349354Y-58728810D01*
X106973205Y-58614707D01*
X106973194Y-58614704D01*
X106587702Y-58538026D01*
X106293089Y-58509010D01*
X106196532Y-58499500D01*
X105803468Y-58499500D01*
X105714251Y-58508287D01*
X105412297Y-58538026D01*
X105026805Y-58614704D01*
X105026794Y-58614707D01*
X104650645Y-58728810D01*
X104287500Y-58879230D01*
X104287495Y-58879232D01*
X103940862Y-59064511D01*
X103940844Y-59064522D01*
X103614039Y-59282887D01*
X103614025Y-59282897D01*
X103310182Y-59532254D01*
X103032254Y-59810182D01*
X102782897Y-60114025D01*
X102782887Y-60114039D01*
X102564522Y-60440844D01*
X102564511Y-60440862D01*
X102379232Y-60787495D01*
X102379230Y-60787500D01*
X102228810Y-61150645D01*
X102114707Y-61526794D01*
X102114704Y-61526805D01*
X102038026Y-61912297D01*
X101999500Y-62303471D01*
X100500500Y-62303471D01*
X100500500Y-55624500D01*
X100520185Y-55557461D01*
X100572989Y-55511706D01*
X100624500Y-55500500D01*
X129163897Y-55500500D01*
X129230936Y-55520185D01*
G37*
%TD.AperFunction*%
%TA.AperFunction,Conductor*%
G36*
X171705703Y-73242390D02*
G01*
X171712181Y-73248422D01*
X177165604Y-78701845D01*
X177198814Y-78761932D01*
X177208468Y-78804229D01*
X177208471Y-78804238D01*
X177316066Y-79111725D01*
X177457413Y-79405234D01*
X177457415Y-79405237D01*
X177630739Y-79681081D01*
X177833857Y-79935783D01*
X178064217Y-80166143D01*
X178318919Y-80369261D01*
X178594763Y-80542585D01*
X178888278Y-80683935D01*
X179119217Y-80764744D01*
X179195761Y-80791528D01*
X179195773Y-80791532D01*
X179513383Y-80864024D01*
X179837106Y-80900499D01*
X179837107Y-80900500D01*
X179837111Y-80900500D01*
X180162893Y-80900500D01*
X180162893Y-80900499D01*
X180486617Y-80864024D01*
X180804227Y-80791532D01*
X181111722Y-80683935D01*
X181405237Y-80542585D01*
X181681081Y-80369261D01*
X181935783Y-80166143D01*
X182166143Y-79935783D01*
X182278553Y-79794824D01*
X182335741Y-79754685D01*
X182405553Y-79751835D01*
X182465823Y-79787180D01*
X182497416Y-79849499D01*
X182499500Y-79872138D01*
X182499500Y-101127861D01*
X182479815Y-101194900D01*
X182427011Y-101240655D01*
X182357853Y-101250599D01*
X182294297Y-101221574D01*
X182278553Y-101205174D01*
X182166143Y-101064217D01*
X181935782Y-100833856D01*
X181829403Y-100749022D01*
X181681081Y-100630739D01*
X181448153Y-100484381D01*
X181405234Y-100457413D01*
X181111725Y-100316066D01*
X180804238Y-100208471D01*
X180804226Y-100208467D01*
X180486620Y-100135976D01*
X180486604Y-100135974D01*
X180162893Y-100099500D01*
X180162889Y-100099500D01*
X179837111Y-100099500D01*
X179837107Y-100099500D01*
X179513395Y-100135974D01*
X179513379Y-100135976D01*
X179195773Y-100208467D01*
X179195761Y-100208471D01*
X178888274Y-100316066D01*
X178594765Y-100457413D01*
X178318920Y-100630738D01*
X178064217Y-100833856D01*
X177833856Y-101064217D01*
X177630738Y-101318920D01*
X177457413Y-101594765D01*
X177316066Y-101888274D01*
X177208471Y-102195761D01*
X177208467Y-102195773D01*
X177135976Y-102513379D01*
X177135974Y-102513395D01*
X177099500Y-102837106D01*
X177099500Y-103162893D01*
X177135974Y-103486611D01*
X177168182Y-103627725D01*
X177163908Y-103697464D01*
X177134972Y-103742998D01*
X170775485Y-110102487D01*
X170775484Y-110102488D01*
X170636657Y-110293565D01*
X170579758Y-110405237D01*
X170529433Y-110504003D01*
X170456446Y-110728631D01*
X170419500Y-110961902D01*
X170419500Y-115375500D01*
X170399815Y-115442539D01*
X170347011Y-115488294D01*
X170295500Y-115499500D01*
X169699335Y-115499500D01*
X169632296Y-115479815D01*
X169611654Y-115463181D01*
X169534657Y-115386184D01*
X169534654Y-115386181D01*
X169534650Y-115386178D01*
X169534645Y-115386174D01*
X169349632Y-115257997D01*
X169349630Y-115257995D01*
X169349626Y-115257993D01*
X169333052Y-115250465D01*
X169144681Y-115164903D01*
X169144678Y-115164902D01*
X168926420Y-115109905D01*
X168926413Y-115109904D01*
X168882347Y-115106436D01*
X168794217Y-115099500D01*
X168794215Y-115099500D01*
X167365791Y-115099500D01*
X167365776Y-115099501D01*
X167233586Y-115109904D01*
X167233579Y-115109905D01*
X167015321Y-115164902D01*
X167015318Y-115164903D01*
X166810377Y-115257991D01*
X166810367Y-115257997D01*
X166625354Y-115386174D01*
X166625342Y-115386184D01*
X166466184Y-115545342D01*
X166466174Y-115545354D01*
X166337997Y-115730367D01*
X166337991Y-115730377D01*
X166244903Y-115935318D01*
X166244902Y-115935321D01*
X166189905Y-116153579D01*
X166189904Y-116153586D01*
X166179500Y-116285777D01*
X166179500Y-117714208D01*
X166179501Y-117714223D01*
X166189904Y-117846413D01*
X166189905Y-117846420D01*
X166244902Y-118064678D01*
X166244903Y-118064681D01*
X166337991Y-118269622D01*
X166337997Y-118269632D01*
X166466174Y-118454645D01*
X166466178Y-118454650D01*
X166466181Y-118454654D01*
X166625346Y-118613819D01*
X166625350Y-118613822D01*
X166625354Y-118613825D01*
X166663003Y-118639908D01*
X166810374Y-118742007D01*
X167015317Y-118835096D01*
X167015321Y-118835097D01*
X167233579Y-118890094D01*
X167233581Y-118890094D01*
X167233588Y-118890096D01*
X167365783Y-118900500D01*
X168794216Y-118900499D01*
X168926412Y-118890096D01*
X169144683Y-118835096D01*
X169349626Y-118742007D01*
X169534654Y-118613819D01*
X169611654Y-118536819D01*
X169672977Y-118503334D01*
X169699335Y-118500500D01*
X170711484Y-118500500D01*
X170778523Y-118520185D01*
X170786958Y-118526115D01*
X170861873Y-118583599D01*
X170861877Y-118583602D01*
X171077623Y-118708162D01*
X171077638Y-118708169D01*
X171176825Y-118749253D01*
X171307793Y-118803502D01*
X171548435Y-118867982D01*
X171795435Y-118900500D01*
X171795442Y-118900500D01*
X172044558Y-118900500D01*
X172044565Y-118900500D01*
X172291565Y-118867982D01*
X172532207Y-118803502D01*
X172762373Y-118708164D01*
X172978127Y-118583599D01*
X173175776Y-118431938D01*
X173351938Y-118255776D01*
X173503599Y-118058127D01*
X173628164Y-117842373D01*
X173723502Y-117612207D01*
X173787982Y-117371565D01*
X173820500Y-117124565D01*
X173820500Y-116875435D01*
X173787982Y-116628435D01*
X173723502Y-116387793D01*
X173646745Y-116202485D01*
X173628169Y-116157638D01*
X173628162Y-116157623D01*
X173503604Y-115941882D01*
X173503599Y-115941873D01*
X173446122Y-115866967D01*
X173420930Y-115801799D01*
X173420500Y-115791483D01*
X173420500Y-111752888D01*
X173440185Y-111685849D01*
X173456814Y-111665212D01*
X176987585Y-108134440D01*
X177048906Y-108100957D01*
X177118598Y-108105941D01*
X177174531Y-108147813D01*
X177198948Y-108213277D01*
X177196155Y-108249715D01*
X177135976Y-108513378D01*
X177135976Y-108513382D01*
X177099500Y-108837106D01*
X177099500Y-109162893D01*
X177135974Y-109486604D01*
X177135976Y-109486620D01*
X177208467Y-109804226D01*
X177208471Y-109804238D01*
X177316066Y-110111725D01*
X177457413Y-110405234D01*
X177457415Y-110405237D01*
X177630739Y-110681081D01*
X177712290Y-110783343D01*
X177833856Y-110935782D01*
X178064217Y-111166143D01*
X178318923Y-111369264D01*
X178441471Y-111446265D01*
X178487763Y-111498599D01*
X178499500Y-111551259D01*
X178499500Y-113667110D01*
X178479815Y-113734149D01*
X178463181Y-113754791D01*
X171633535Y-120584436D01*
X171572212Y-120617921D01*
X171562040Y-120619694D01*
X171468438Y-120632017D01*
X171227792Y-120696498D01*
X170997638Y-120791830D01*
X170997623Y-120791837D01*
X170781877Y-120916397D01*
X170742050Y-120946958D01*
X170706968Y-120973876D01*
X170641801Y-120999070D01*
X170631484Y-120999500D01*
X169699335Y-120999500D01*
X169632296Y-120979815D01*
X169611654Y-120963181D01*
X169534657Y-120886184D01*
X169534654Y-120886181D01*
X169534650Y-120886178D01*
X169534645Y-120886174D01*
X169349632Y-120757997D01*
X169349630Y-120757995D01*
X169349626Y-120757993D01*
X169226260Y-120701958D01*
X169144681Y-120664903D01*
X169144678Y-120664902D01*
X168926420Y-120609905D01*
X168926413Y-120609904D01*
X168882347Y-120606436D01*
X168794217Y-120599500D01*
X168794215Y-120599500D01*
X167365791Y-120599500D01*
X167365776Y-120599501D01*
X167233586Y-120609904D01*
X167233579Y-120609905D01*
X167015321Y-120664902D01*
X167015318Y-120664903D01*
X166810377Y-120757991D01*
X166810367Y-120757997D01*
X166625354Y-120886174D01*
X166625342Y-120886184D01*
X166466184Y-121045342D01*
X166466174Y-121045354D01*
X166337997Y-121230367D01*
X166337991Y-121230377D01*
X166244903Y-121435318D01*
X166244902Y-121435321D01*
X166189905Y-121653579D01*
X166189904Y-121653586D01*
X166179500Y-121785777D01*
X166179500Y-123214208D01*
X166179501Y-123214223D01*
X166189904Y-123346413D01*
X166189905Y-123346420D01*
X166244902Y-123564678D01*
X166244903Y-123564681D01*
X166337991Y-123769622D01*
X166337997Y-123769632D01*
X166466174Y-123954645D01*
X166466178Y-123954650D01*
X166466181Y-123954654D01*
X166625346Y-124113819D01*
X166625350Y-124113822D01*
X166625354Y-124113825D01*
X166701998Y-124166924D01*
X166810374Y-124242007D01*
X166855714Y-124262601D01*
X166908611Y-124308248D01*
X166928432Y-124375247D01*
X166908884Y-124442327D01*
X166856173Y-124488189D01*
X166804432Y-124499500D01*
X154672889Y-124499500D01*
X154605850Y-124479815D01*
X154585208Y-124463181D01*
X152531718Y-122409691D01*
X152520866Y-122389818D01*
X156520000Y-122389818D01*
X156520000Y-122610181D01*
X156554473Y-122827835D01*
X156622567Y-123037410D01*
X156722611Y-123233756D01*
X156768932Y-123297513D01*
X157477861Y-122588584D01*
X157500667Y-122673694D01*
X157559910Y-122776306D01*
X157643694Y-122860090D01*
X157746306Y-122919333D01*
X157831414Y-122942137D01*
X157122485Y-123651065D01*
X157122485Y-123651066D01*
X157186243Y-123697388D01*
X157382589Y-123797432D01*
X157592164Y-123865526D01*
X157809819Y-123900000D01*
X158030181Y-123900000D01*
X158247835Y-123865526D01*
X158457410Y-123797432D01*
X158653760Y-123697386D01*
X158717513Y-123651066D01*
X158717514Y-123651066D01*
X158008585Y-122942138D01*
X158093694Y-122919333D01*
X158196306Y-122860090D01*
X158280090Y-122776306D01*
X158339333Y-122673694D01*
X158362138Y-122588585D01*
X159071066Y-123297514D01*
X159071066Y-123297513D01*
X159117386Y-123233760D01*
X159217432Y-123037410D01*
X159285526Y-122827835D01*
X159320000Y-122610181D01*
X159320000Y-122389818D01*
X159285526Y-122172164D01*
X159217432Y-121962589D01*
X159117388Y-121766243D01*
X159071066Y-121702485D01*
X159071065Y-121702485D01*
X158362137Y-122411413D01*
X158339333Y-122326306D01*
X158280090Y-122223694D01*
X158196306Y-122139910D01*
X158093694Y-122080667D01*
X158008583Y-122057861D01*
X158717513Y-121348932D01*
X158653756Y-121302611D01*
X158457410Y-121202567D01*
X158247835Y-121134473D01*
X158030181Y-121100000D01*
X157809819Y-121100000D01*
X157592164Y-121134473D01*
X157382589Y-121202567D01*
X157186233Y-121302616D01*
X157122485Y-121348931D01*
X157122485Y-121348932D01*
X157831414Y-122057861D01*
X157746306Y-122080667D01*
X157643694Y-122139910D01*
X157559910Y-122223694D01*
X157500667Y-122326306D01*
X157477861Y-122411414D01*
X156768932Y-121702485D01*
X156768931Y-121702485D01*
X156722616Y-121766233D01*
X156622567Y-121962589D01*
X156554473Y-122172164D01*
X156520000Y-122389818D01*
X152520866Y-122389818D01*
X152498233Y-122348368D01*
X152496460Y-122338196D01*
X152481385Y-122223694D01*
X152466270Y-122108884D01*
X152398398Y-121855581D01*
X152398394Y-121855571D01*
X152298046Y-121613309D01*
X152298041Y-121613299D01*
X152208490Y-121458191D01*
X152166924Y-121386196D01*
X152007281Y-121178148D01*
X152007274Y-121178140D01*
X151821860Y-120992726D01*
X151821851Y-120992718D01*
X151613803Y-120833075D01*
X151386700Y-120701958D01*
X151386690Y-120701953D01*
X151144428Y-120601605D01*
X151144421Y-120601603D01*
X151144419Y-120601602D01*
X150891116Y-120533730D01*
X150833339Y-120526123D01*
X150631127Y-120499500D01*
X150631120Y-120499500D01*
X150368880Y-120499500D01*
X150368872Y-120499500D01*
X150137772Y-120529926D01*
X150108884Y-120533730D01*
X149948073Y-120576819D01*
X149855581Y-120601602D01*
X149855571Y-120601605D01*
X149613309Y-120701953D01*
X149613299Y-120701958D01*
X149386196Y-120833075D01*
X149257242Y-120932027D01*
X149202704Y-120973875D01*
X149137537Y-120999070D01*
X149127219Y-120999500D01*
X148381903Y-120999500D01*
X148148631Y-121036446D01*
X147924003Y-121109433D01*
X147713566Y-121216657D01*
X147642913Y-121267990D01*
X147522490Y-121355483D01*
X147522488Y-121355485D01*
X147522487Y-121355485D01*
X145414792Y-123463181D01*
X145353469Y-123496666D01*
X145327111Y-123499500D01*
X141535283Y-123499500D01*
X141473283Y-123482887D01*
X141298056Y-123381719D01*
X141298045Y-123381714D01*
X141079993Y-123291394D01*
X140884543Y-123239023D01*
X140828956Y-123206929D01*
X137519709Y-119897682D01*
X139200000Y-119897682D01*
X139200000Y-120102317D01*
X139232009Y-120304417D01*
X139295244Y-120499031D01*
X139388141Y-120681350D01*
X139388147Y-120681359D01*
X139420523Y-120725921D01*
X139420524Y-120725922D01*
X140100000Y-120046446D01*
X140100000Y-120052661D01*
X140127259Y-120154394D01*
X140179920Y-120245606D01*
X140254394Y-120320080D01*
X140345606Y-120372741D01*
X140447339Y-120400000D01*
X140453553Y-120400000D01*
X139774076Y-121079474D01*
X139818650Y-121111859D01*
X140000968Y-121204755D01*
X140195582Y-121267990D01*
X140397683Y-121300000D01*
X140602317Y-121300000D01*
X140804417Y-121267990D01*
X140999031Y-121204755D01*
X141181349Y-121111859D01*
X141225921Y-121079474D01*
X140546447Y-120400000D01*
X140552661Y-120400000D01*
X140654394Y-120372741D01*
X140745606Y-120320080D01*
X140820080Y-120245606D01*
X140872741Y-120154394D01*
X140900000Y-120052661D01*
X140900000Y-120046447D01*
X141579474Y-120725921D01*
X141611859Y-120681349D01*
X141704755Y-120499031D01*
X141767990Y-120304417D01*
X141800000Y-120102317D01*
X141800000Y-119897682D01*
X141767990Y-119695582D01*
X141704755Y-119500968D01*
X141611859Y-119318650D01*
X141579474Y-119274077D01*
X141579474Y-119274076D01*
X140900000Y-119953551D01*
X140900000Y-119947339D01*
X140872741Y-119845606D01*
X140820080Y-119754394D01*
X140745606Y-119679920D01*
X140654394Y-119627259D01*
X140552661Y-119600000D01*
X140546446Y-119600000D01*
X141225922Y-118920524D01*
X141225921Y-118920523D01*
X141181359Y-118888147D01*
X141181350Y-118888141D01*
X140999027Y-118795242D01*
X140993142Y-118793330D01*
X140993138Y-118793330D01*
X140804417Y-118732009D01*
X140602317Y-118700000D01*
X140397683Y-118700000D01*
X140195582Y-118732009D01*
X140000968Y-118795244D01*
X139818644Y-118888143D01*
X139774077Y-118920523D01*
X139774077Y-118920524D01*
X140453554Y-119600000D01*
X140447339Y-119600000D01*
X140345606Y-119627259D01*
X140254394Y-119679920D01*
X140179920Y-119754394D01*
X140127259Y-119845606D01*
X140100000Y-119947339D01*
X140100000Y-119953553D01*
X139420524Y-119274077D01*
X139420523Y-119274077D01*
X139388143Y-119318644D01*
X139295244Y-119500968D01*
X139232009Y-119695582D01*
X139200000Y-119897682D01*
X137519709Y-119897682D01*
X135517511Y-117895484D01*
X135495142Y-117879232D01*
X135326434Y-117756657D01*
X135243600Y-117714451D01*
X135115996Y-117649433D01*
X134891368Y-117576446D01*
X134658097Y-117539500D01*
X134658092Y-117539500D01*
X129352995Y-117539500D01*
X129351145Y-117538956D01*
X129349282Y-117539444D01*
X129317766Y-117529155D01*
X129285956Y-117519815D01*
X129284113Y-117518169D01*
X129282862Y-117517761D01*
X129256892Y-117493860D01*
X129225561Y-117455435D01*
X129225560Y-117455434D01*
X129165640Y-117381947D01*
X149000000Y-117381947D01*
X149000000Y-117618052D01*
X149036934Y-117851247D01*
X149109897Y-118075802D01*
X149217087Y-118286174D01*
X149277338Y-118369104D01*
X149277340Y-118369105D01*
X150017037Y-117629408D01*
X150034075Y-117692993D01*
X150099901Y-117807007D01*
X150192993Y-117900099D01*
X150307007Y-117965925D01*
X150370590Y-117982962D01*
X149630893Y-118722658D01*
X149713828Y-118782914D01*
X149924197Y-118890102D01*
X150148752Y-118963065D01*
X150148751Y-118963065D01*
X150381948Y-119000000D01*
X150618052Y-119000000D01*
X150851247Y-118963065D01*
X151075802Y-118890102D01*
X151286163Y-118782918D01*
X151286169Y-118782914D01*
X151369104Y-118722658D01*
X151369105Y-118722658D01*
X150629408Y-117982962D01*
X150692993Y-117965925D01*
X150807007Y-117900099D01*
X150900099Y-117807007D01*
X150965925Y-117692993D01*
X150982962Y-117629409D01*
X151722658Y-118369105D01*
X151722658Y-118369104D01*
X151782914Y-118286169D01*
X151782918Y-118286163D01*
X151890102Y-118075804D01*
X151893454Y-118065488D01*
X151893454Y-118065487D01*
X151963065Y-117851247D01*
X152000000Y-117618052D01*
X152000000Y-117381947D01*
X151963065Y-117148751D01*
X151890104Y-116924199D01*
X151872586Y-116889818D01*
X156520000Y-116889818D01*
X156520000Y-117110181D01*
X156554473Y-117327835D01*
X156622567Y-117537410D01*
X156722611Y-117733756D01*
X156768932Y-117797513D01*
X157477861Y-117088584D01*
X157500667Y-117173694D01*
X157559910Y-117276306D01*
X157643694Y-117360090D01*
X157746306Y-117419333D01*
X157831414Y-117442137D01*
X157122485Y-118151065D01*
X157122485Y-118151066D01*
X157186243Y-118197388D01*
X157382589Y-118297432D01*
X157592164Y-118365526D01*
X157809819Y-118400000D01*
X158030181Y-118400000D01*
X158247835Y-118365526D01*
X158457410Y-118297432D01*
X158653760Y-118197386D01*
X158717513Y-118151066D01*
X158717514Y-118151066D01*
X158008585Y-117442138D01*
X158093694Y-117419333D01*
X158196306Y-117360090D01*
X158280090Y-117276306D01*
X158339333Y-117173694D01*
X158362138Y-117088585D01*
X159071066Y-117797514D01*
X159071066Y-117797513D01*
X159117386Y-117733760D01*
X159217432Y-117537410D01*
X159285526Y-117327835D01*
X159320000Y-117110181D01*
X159320000Y-116889818D01*
X159285526Y-116672164D01*
X159217432Y-116462589D01*
X159117388Y-116266243D01*
X159071066Y-116202485D01*
X159071065Y-116202485D01*
X158362137Y-116911413D01*
X158339333Y-116826306D01*
X158280090Y-116723694D01*
X158196306Y-116639910D01*
X158093694Y-116580667D01*
X158008583Y-116557861D01*
X158717513Y-115848932D01*
X158653756Y-115802611D01*
X158457410Y-115702567D01*
X158247835Y-115634473D01*
X158030181Y-115600000D01*
X157809819Y-115600000D01*
X157592164Y-115634473D01*
X157382589Y-115702567D01*
X157186233Y-115802616D01*
X157122485Y-115848931D01*
X157122485Y-115848932D01*
X157831414Y-116557861D01*
X157746306Y-116580667D01*
X157643694Y-116639910D01*
X157559910Y-116723694D01*
X157500667Y-116826306D01*
X157477861Y-116911414D01*
X156768932Y-116202485D01*
X156768931Y-116202485D01*
X156722616Y-116266233D01*
X156622567Y-116462589D01*
X156554473Y-116672164D01*
X156520000Y-116889818D01*
X151872586Y-116889818D01*
X151782914Y-116713828D01*
X151722658Y-116630894D01*
X151722658Y-116630893D01*
X150982962Y-117370590D01*
X150965925Y-117307007D01*
X150900099Y-117192993D01*
X150807007Y-117099901D01*
X150692993Y-117034075D01*
X150629409Y-117017037D01*
X151369105Y-116277340D01*
X151369104Y-116277338D01*
X151286174Y-116217087D01*
X151075802Y-116109897D01*
X150851247Y-116036934D01*
X150851248Y-116036934D01*
X150735893Y-116018664D01*
X150618052Y-116000000D01*
X150381948Y-116000000D01*
X150148752Y-116036934D01*
X149924197Y-116109897D01*
X149713830Y-116217084D01*
X149630894Y-116277340D01*
X150370591Y-117017037D01*
X150307007Y-117034075D01*
X150192993Y-117099901D01*
X150099901Y-117192993D01*
X150034075Y-117307007D01*
X150017037Y-117370591D01*
X149277340Y-116630894D01*
X149217084Y-116713830D01*
X149109897Y-116924197D01*
X149036934Y-117148752D01*
X149000000Y-117381947D01*
X129165640Y-117381947D01*
X129161109Y-117376390D01*
X129038364Y-117276306D01*
X129003407Y-117247802D01*
X129003404Y-117247800D01*
X128906842Y-117197360D01*
X128856535Y-117148874D01*
X128840428Y-117080886D01*
X128846323Y-117049133D01*
X128914234Y-116840128D01*
X128928509Y-116750000D01*
X127940748Y-116750000D01*
X127962518Y-116712292D01*
X128000000Y-116572409D01*
X128000000Y-116427591D01*
X127962518Y-116287708D01*
X127940748Y-116250000D01*
X128928509Y-116250000D01*
X128928509Y-116249999D01*
X128914234Y-116159871D01*
X128843582Y-115942429D01*
X128739788Y-115738723D01*
X128684717Y-115662925D01*
X128682221Y-115655931D01*
X128676912Y-115650746D01*
X128670642Y-115623478D01*
X128661237Y-115597119D01*
X128662918Y-115589887D01*
X128661255Y-115582653D01*
X128670724Y-115556320D01*
X128677062Y-115529065D01*
X128682971Y-115522261D01*
X128684898Y-115516905D01*
X128709552Y-115491661D01*
X128716778Y-115486116D01*
X128781950Y-115460929D01*
X128792255Y-115460500D01*
X134658097Y-115460500D01*
X134891368Y-115423553D01*
X135115992Y-115350568D01*
X135326434Y-115243343D01*
X135517510Y-115104517D01*
X137724344Y-112897682D01*
X139200000Y-112897682D01*
X139200000Y-113102317D01*
X139232009Y-113304417D01*
X139295244Y-113499031D01*
X139388141Y-113681350D01*
X139388147Y-113681359D01*
X139420523Y-113725921D01*
X139420524Y-113725922D01*
X140100000Y-113046446D01*
X140100000Y-113052661D01*
X140127259Y-113154394D01*
X140179920Y-113245606D01*
X140254394Y-113320080D01*
X140345606Y-113372741D01*
X140447339Y-113400000D01*
X140453553Y-113400000D01*
X139774076Y-114079474D01*
X139818650Y-114111859D01*
X140000968Y-114204755D01*
X140195582Y-114267990D01*
X140397683Y-114300000D01*
X140602317Y-114300000D01*
X140804417Y-114267990D01*
X140999031Y-114204755D01*
X141181349Y-114111859D01*
X141225921Y-114079474D01*
X140546447Y-113400000D01*
X140552661Y-113400000D01*
X140654394Y-113372741D01*
X140745606Y-113320080D01*
X140820080Y-113245606D01*
X140872741Y-113154394D01*
X140900000Y-113052661D01*
X140900000Y-113046447D01*
X141579474Y-113725921D01*
X141611859Y-113681349D01*
X141704755Y-113499031D01*
X141767990Y-113304417D01*
X141800000Y-113102317D01*
X141800000Y-112897682D01*
X141767990Y-112695582D01*
X141704755Y-112500968D01*
X141611859Y-112318650D01*
X141579474Y-112274077D01*
X141579474Y-112274076D01*
X140900000Y-112953551D01*
X140900000Y-112947339D01*
X140872741Y-112845606D01*
X140820080Y-112754394D01*
X140745606Y-112679920D01*
X140654394Y-112627259D01*
X140552661Y-112600000D01*
X140546446Y-112600000D01*
X141225922Y-111920524D01*
X141225921Y-111920523D01*
X141181359Y-111888147D01*
X141181350Y-111888141D01*
X140999031Y-111795244D01*
X140804417Y-111732009D01*
X140602317Y-111700000D01*
X140397683Y-111700000D01*
X140195582Y-111732009D01*
X140000968Y-111795244D01*
X139818644Y-111888143D01*
X139774077Y-111920523D01*
X139774077Y-111920524D01*
X140453554Y-112600000D01*
X140447339Y-112600000D01*
X140345606Y-112627259D01*
X140254394Y-112679920D01*
X140179920Y-112754394D01*
X140127259Y-112845606D01*
X140100000Y-112947339D01*
X140100000Y-112953553D01*
X139420524Y-112274077D01*
X139420523Y-112274077D01*
X139388143Y-112318644D01*
X139295244Y-112500968D01*
X139232009Y-112695582D01*
X139200000Y-112897682D01*
X137724344Y-112897682D01*
X140828958Y-109793067D01*
X140884541Y-109760976D01*
X141079993Y-109708606D01*
X141298049Y-109618284D01*
X141502450Y-109500273D01*
X141689699Y-109356592D01*
X141856592Y-109189699D01*
X142000273Y-109002450D01*
X142118284Y-108798049D01*
X142208606Y-108579993D01*
X142269693Y-108352014D01*
X142300500Y-108118011D01*
X142300500Y-107881989D01*
X142269693Y-107647986D01*
X142208606Y-107420007D01*
X142118284Y-107201951D01*
X142118282Y-107201948D01*
X142118280Y-107201943D01*
X142017113Y-107026717D01*
X142000500Y-106964717D01*
X142000500Y-106172889D01*
X142020185Y-106105850D01*
X142036819Y-106085208D01*
X142330499Y-105791528D01*
X142757002Y-105365024D01*
X142818323Y-105331541D01*
X142872270Y-105331815D01*
X143013383Y-105364024D01*
X143337106Y-105400499D01*
X143337107Y-105400500D01*
X143337111Y-105400500D01*
X143662893Y-105400500D01*
X143662893Y-105400499D01*
X143986617Y-105364024D01*
X144304227Y-105291532D01*
X144611722Y-105183935D01*
X144905237Y-105042585D01*
X145181081Y-104869261D01*
X145435783Y-104666143D01*
X145666143Y-104435783D01*
X145869261Y-104181081D01*
X146042585Y-103905237D01*
X146183935Y-103611722D01*
X146291532Y-103304227D01*
X146364024Y-102986617D01*
X146400500Y-102662889D01*
X146400500Y-102337111D01*
X146364024Y-102013383D01*
X146337616Y-101897682D01*
X147040000Y-101897682D01*
X147040000Y-102102317D01*
X147072009Y-102304417D01*
X147135244Y-102499031D01*
X147228141Y-102681350D01*
X147228147Y-102681359D01*
X147260523Y-102725921D01*
X147260524Y-102725922D01*
X147940000Y-102046446D01*
X147940000Y-102052661D01*
X147967259Y-102154394D01*
X148019920Y-102245606D01*
X148094394Y-102320080D01*
X148185606Y-102372741D01*
X148287339Y-102400000D01*
X148293553Y-102400000D01*
X147614076Y-103079474D01*
X147658650Y-103111859D01*
X147840968Y-103204755D01*
X148035582Y-103267990D01*
X148237683Y-103300000D01*
X148442317Y-103300000D01*
X148644417Y-103267990D01*
X148839031Y-103204755D01*
X149021349Y-103111859D01*
X149065921Y-103079474D01*
X148386447Y-102400000D01*
X148392661Y-102400000D01*
X148494394Y-102372741D01*
X148585606Y-102320080D01*
X148660080Y-102245606D01*
X148712741Y-102154394D01*
X148740000Y-102052661D01*
X148740000Y-102046447D01*
X149419474Y-102725921D01*
X149451859Y-102681349D01*
X149544755Y-102499031D01*
X149607990Y-102304417D01*
X149640000Y-102102317D01*
X149640000Y-101897682D01*
X149607990Y-101695582D01*
X149544755Y-101500968D01*
X149451859Y-101318650D01*
X149419474Y-101274077D01*
X149419474Y-101274076D01*
X148740000Y-101953551D01*
X148740000Y-101947339D01*
X148712741Y-101845606D01*
X148660080Y-101754394D01*
X148585606Y-101679920D01*
X148494394Y-101627259D01*
X148392661Y-101600000D01*
X148386446Y-101600000D01*
X149065922Y-100920524D01*
X149065921Y-100920523D01*
X149021359Y-100888147D01*
X149021350Y-100888141D01*
X148839031Y-100795244D01*
X148644417Y-100732009D01*
X148442317Y-100700000D01*
X148237683Y-100700000D01*
X148035582Y-100732009D01*
X147840968Y-100795244D01*
X147658644Y-100888143D01*
X147614077Y-100920523D01*
X147614077Y-100920524D01*
X148293554Y-101600000D01*
X148287339Y-101600000D01*
X148185606Y-101627259D01*
X148094394Y-101679920D01*
X148019920Y-101754394D01*
X147967259Y-101845606D01*
X147940000Y-101947339D01*
X147940000Y-101953553D01*
X147260524Y-101274077D01*
X147260523Y-101274077D01*
X147228143Y-101318644D01*
X147135244Y-101500968D01*
X147072009Y-101695582D01*
X147040000Y-101897682D01*
X146337616Y-101897682D01*
X146291532Y-101695773D01*
X146183935Y-101388278D01*
X146042585Y-101094763D01*
X145869261Y-100818919D01*
X145666143Y-100564217D01*
X145435783Y-100333857D01*
X145294824Y-100221446D01*
X145254685Y-100164259D01*
X145251835Y-100094447D01*
X145287180Y-100034177D01*
X145349499Y-100002584D01*
X145372138Y-100000500D01*
X148038097Y-100000500D01*
X148271368Y-99963553D01*
X148300741Y-99954009D01*
X148495992Y-99890568D01*
X148700729Y-99786249D01*
X148740836Y-99773797D01*
X148772014Y-99769693D01*
X148999993Y-99708606D01*
X149218049Y-99618284D01*
X149422450Y-99500273D01*
X149609699Y-99356592D01*
X149776592Y-99189699D01*
X149920273Y-99002450D01*
X150038284Y-98798049D01*
X150128606Y-98579993D01*
X150189693Y-98352014D01*
X150220500Y-98118011D01*
X150220500Y-97881989D01*
X150189693Y-97647986D01*
X150128606Y-97420007D01*
X150038284Y-97201951D01*
X150038282Y-97201948D01*
X150038280Y-97201943D01*
X149984406Y-97108632D01*
X149920273Y-96997550D01*
X149833149Y-96884008D01*
X149776593Y-96810302D01*
X149776587Y-96810295D01*
X149609704Y-96643412D01*
X149609697Y-96643406D01*
X149422454Y-96499730D01*
X149422453Y-96499729D01*
X149422450Y-96499727D01*
X149335014Y-96449246D01*
X149218056Y-96381719D01*
X149218045Y-96381714D01*
X148999993Y-96291394D01*
X148804542Y-96239023D01*
X148772014Y-96230307D01*
X148772013Y-96230306D01*
X148772010Y-96230306D01*
X148538020Y-96199501D01*
X148538017Y-96199500D01*
X148538011Y-96199500D01*
X148301989Y-96199500D01*
X148301983Y-96199500D01*
X148301979Y-96199501D01*
X148067989Y-96230306D01*
X147840006Y-96291394D01*
X147621954Y-96381714D01*
X147621943Y-96381719D01*
X147417545Y-96499730D01*
X147230302Y-96643406D01*
X147230295Y-96643412D01*
X147063412Y-96810295D01*
X147063406Y-96810302D01*
X146955457Y-96950986D01*
X146899029Y-96992189D01*
X146857081Y-96999500D01*
X113836103Y-96999500D01*
X113769064Y-96979815D01*
X113723309Y-96927011D01*
X113713365Y-96857853D01*
X113742390Y-96794297D01*
X113748422Y-96787819D01*
X124999422Y-85536819D01*
X125060745Y-85503334D01*
X125087103Y-85500500D01*
X147390795Y-85500500D01*
X147457834Y-85520185D01*
X147503589Y-85572989D01*
X147513533Y-85642147D01*
X147484508Y-85705703D01*
X147478476Y-85712181D01*
X147275485Y-85915171D01*
X147275484Y-85915172D01*
X147136659Y-86106246D01*
X147136658Y-86106248D01*
X147104774Y-86168825D01*
X147029433Y-86316687D01*
X146956446Y-86541315D01*
X146919500Y-86774586D01*
X146919500Y-92464717D01*
X146902887Y-92526717D01*
X146801719Y-92701943D01*
X146801714Y-92701954D01*
X146711394Y-92920006D01*
X146650306Y-93147989D01*
X146619501Y-93381979D01*
X146619500Y-93381995D01*
X146619500Y-93618004D01*
X146619501Y-93618020D01*
X146650306Y-93852010D01*
X146711394Y-94079993D01*
X146801714Y-94298045D01*
X146801719Y-94298056D01*
X146872677Y-94420957D01*
X146919727Y-94502450D01*
X146919729Y-94502453D01*
X146919730Y-94502454D01*
X147063406Y-94689697D01*
X147063412Y-94689704D01*
X147230295Y-94856587D01*
X147230302Y-94856593D01*
X147340306Y-94941001D01*
X147417550Y-95000273D01*
X147548918Y-95076118D01*
X147621943Y-95118280D01*
X147621948Y-95118282D01*
X147621951Y-95118284D01*
X147840007Y-95208606D01*
X148067986Y-95269693D01*
X148301989Y-95300500D01*
X148301996Y-95300500D01*
X148538004Y-95300500D01*
X148538011Y-95300500D01*
X148772014Y-95269693D01*
X148999993Y-95208606D01*
X149218049Y-95118284D01*
X149422450Y-95000273D01*
X149609699Y-94856592D01*
X149776592Y-94689699D01*
X149920273Y-94502450D01*
X150038284Y-94298049D01*
X150128606Y-94079993D01*
X150180976Y-93884541D01*
X150213067Y-93828958D01*
X152689208Y-91352818D01*
X152750531Y-91319333D01*
X152776889Y-91316499D01*
X153070504Y-91316499D01*
X153070512Y-91316499D01*
X153205339Y-91305889D01*
X153427974Y-91249790D01*
X153637014Y-91154839D01*
X153825741Y-91024089D01*
X153988089Y-90861741D01*
X154118839Y-90673014D01*
X154174010Y-90551549D01*
X154219657Y-90498654D01*
X154286656Y-90478832D01*
X154353735Y-90498380D01*
X154383852Y-90525515D01*
X154385242Y-90527258D01*
X154508737Y-90650753D01*
X154656613Y-90743669D01*
X154821460Y-90801351D01*
X154951469Y-90815999D01*
X154951473Y-90816000D01*
X155020000Y-90816000D01*
X155020000Y-89540000D01*
X155022550Y-89531314D01*
X155021262Y-89522353D01*
X155032240Y-89498312D01*
X155039685Y-89472961D01*
X155046525Y-89467033D01*
X155050287Y-89458797D01*
X155072521Y-89444507D01*
X155092489Y-89427206D01*
X155103003Y-89424918D01*
X155109065Y-89421023D01*
X155144000Y-89416000D01*
X155384503Y-89416000D01*
X155451542Y-89435685D01*
X155472184Y-89452319D01*
X155483681Y-89463816D01*
X155496909Y-89488041D01*
X155497297Y-89488489D01*
X155497348Y-89488845D01*
X155517166Y-89525139D01*
X155520000Y-89551497D01*
X155520000Y-90816000D01*
X155542181Y-90838181D01*
X155575666Y-90899504D01*
X155578500Y-90925862D01*
X155578500Y-96617097D01*
X155615446Y-96850368D01*
X155688433Y-97074996D01*
X155790257Y-97274835D01*
X155795657Y-97285434D01*
X155901798Y-97431524D01*
X155934484Y-97476511D01*
X156786929Y-98328956D01*
X156819023Y-98384543D01*
X156871394Y-98579993D01*
X156961714Y-98798045D01*
X156961719Y-98798056D01*
X157032677Y-98920957D01*
X157079727Y-99002450D01*
X157079729Y-99002453D01*
X157079730Y-99002454D01*
X157223406Y-99189697D01*
X157223412Y-99189704D01*
X157390295Y-99356587D01*
X157390302Y-99356593D01*
X157500306Y-99441001D01*
X157577550Y-99500273D01*
X157708918Y-99576118D01*
X157781943Y-99618280D01*
X157781948Y-99618282D01*
X157781951Y-99618284D01*
X158000007Y-99708606D01*
X158227986Y-99769693D01*
X158461989Y-99800500D01*
X158461996Y-99800500D01*
X158698004Y-99800500D01*
X158698011Y-99800500D01*
X158932014Y-99769693D01*
X159159993Y-99708606D01*
X159378049Y-99618284D01*
X159582450Y-99500273D01*
X159769699Y-99356592D01*
X159936592Y-99189699D01*
X160080273Y-99002450D01*
X160198284Y-98798049D01*
X160260939Y-98646787D01*
X160304780Y-98592383D01*
X160371074Y-98570318D01*
X160438773Y-98587597D01*
X160486384Y-98638734D01*
X160499500Y-98694239D01*
X160499500Y-99327110D01*
X160479815Y-99394149D01*
X160463181Y-99414791D01*
X159490987Y-100386984D01*
X159429664Y-100420469D01*
X159359972Y-100415485D01*
X159341306Y-100406690D01*
X159298056Y-100381719D01*
X159298045Y-100381714D01*
X159079993Y-100291394D01*
X159037810Y-100280091D01*
X158852014Y-100230307D01*
X158852013Y-100230306D01*
X158852010Y-100230306D01*
X158618020Y-100199501D01*
X158618017Y-100199500D01*
X158618011Y-100199500D01*
X158381989Y-100199500D01*
X158381983Y-100199500D01*
X158381979Y-100199501D01*
X158147989Y-100230306D01*
X157920006Y-100291394D01*
X157701954Y-100381714D01*
X157701943Y-100381719D01*
X157497545Y-100499730D01*
X157310302Y-100643406D01*
X157310295Y-100643412D01*
X157143412Y-100810295D01*
X157143406Y-100810302D01*
X156999730Y-100997545D01*
X156881719Y-101201943D01*
X156881714Y-101201954D01*
X156791394Y-101420006D01*
X156730306Y-101647989D01*
X156699501Y-101881979D01*
X156699500Y-101881995D01*
X156699500Y-102118004D01*
X156699501Y-102118020D01*
X156730306Y-102352010D01*
X156791394Y-102579993D01*
X156881714Y-102798045D01*
X156881719Y-102798056D01*
X156904268Y-102837111D01*
X156999727Y-103002450D01*
X156999729Y-103002453D01*
X156999730Y-103002454D01*
X157143406Y-103189697D01*
X157143412Y-103189704D01*
X157310295Y-103356587D01*
X157310301Y-103356592D01*
X157497550Y-103500273D01*
X157628918Y-103576118D01*
X157701943Y-103618280D01*
X157701948Y-103618282D01*
X157701951Y-103618284D01*
X157920007Y-103708606D01*
X158147986Y-103769693D01*
X158381989Y-103800500D01*
X158381996Y-103800500D01*
X158618004Y-103800500D01*
X158618011Y-103800500D01*
X158852014Y-103769693D01*
X159079993Y-103708606D01*
X159298049Y-103618284D01*
X159467962Y-103520185D01*
X159473283Y-103517113D01*
X159535283Y-103500500D01*
X160118097Y-103500500D01*
X160351368Y-103463553D01*
X160380741Y-103454009D01*
X160575992Y-103390568D01*
X160786434Y-103283343D01*
X160977510Y-103144517D01*
X163144517Y-100977510D01*
X163275182Y-100797665D01*
X163330512Y-100755001D01*
X163400126Y-100749022D01*
X163461921Y-100781628D01*
X163496278Y-100842467D01*
X163499500Y-100870552D01*
X163499500Y-107327111D01*
X163479815Y-107394150D01*
X163463181Y-107414792D01*
X162914792Y-107963181D01*
X162853469Y-107996666D01*
X162827111Y-107999500D01*
X151051260Y-107999500D01*
X150984221Y-107979815D01*
X150946266Y-107941472D01*
X150908884Y-107881979D01*
X150869261Y-107818919D01*
X150666143Y-107564217D01*
X150435783Y-107333857D01*
X150417051Y-107318919D01*
X150318911Y-107240655D01*
X150181081Y-107130739D01*
X149905237Y-106957415D01*
X149905234Y-106957413D01*
X149611725Y-106816066D01*
X149304238Y-106708471D01*
X149304226Y-106708467D01*
X148986620Y-106635976D01*
X148986604Y-106635974D01*
X148662893Y-106599500D01*
X148662889Y-106599500D01*
X148337111Y-106599500D01*
X148337107Y-106599500D01*
X148013395Y-106635974D01*
X148013379Y-106635976D01*
X147695773Y-106708467D01*
X147695761Y-106708471D01*
X147388274Y-106816066D01*
X147094765Y-106957413D01*
X146818920Y-107130738D01*
X146564217Y-107333856D01*
X146333856Y-107564217D01*
X146130738Y-107818920D01*
X145957413Y-108094765D01*
X145816066Y-108388274D01*
X145708471Y-108695761D01*
X145708467Y-108695773D01*
X145635976Y-109013379D01*
X145635974Y-109013395D01*
X145599500Y-109337106D01*
X145599500Y-109662893D01*
X145635974Y-109986604D01*
X145635976Y-109986620D01*
X145708467Y-110304226D01*
X145708471Y-110304238D01*
X145816066Y-110611725D01*
X145957413Y-110905234D01*
X145957415Y-110905237D01*
X146130739Y-111181081D01*
X146333857Y-111435783D01*
X146564217Y-111666143D01*
X146818919Y-111869261D01*
X147094763Y-112042585D01*
X147388278Y-112183935D01*
X147619217Y-112264744D01*
X147695761Y-112291528D01*
X147695773Y-112291532D01*
X148013383Y-112364024D01*
X148337106Y-112400499D01*
X148337107Y-112400500D01*
X148337111Y-112400500D01*
X148662893Y-112400500D01*
X148662893Y-112400499D01*
X148986617Y-112364024D01*
X149304227Y-112291532D01*
X149611722Y-112183935D01*
X149905237Y-112042585D01*
X150181081Y-111869261D01*
X150435783Y-111666143D01*
X150666143Y-111435783D01*
X150869261Y-111181081D01*
X150946266Y-111058528D01*
X150998601Y-111012237D01*
X151051260Y-111000500D01*
X163618097Y-111000500D01*
X163851368Y-110963553D01*
X163856449Y-110961902D01*
X164075992Y-110890568D01*
X164286434Y-110783343D01*
X164477510Y-110644517D01*
X166144517Y-108977510D01*
X166283343Y-108786434D01*
X166390568Y-108575992D01*
X166410911Y-108513383D01*
X166463553Y-108351368D01*
X166479653Y-108249715D01*
X166500500Y-108118097D01*
X166500500Y-98308695D01*
X166520185Y-98241656D01*
X166551612Y-98208378D01*
X166639510Y-98144517D01*
X171144517Y-93639510D01*
X171283343Y-93448434D01*
X171390568Y-93237993D01*
X171392999Y-93230510D01*
X171414282Y-93165009D01*
X171414282Y-93165007D01*
X171463553Y-93013368D01*
X171500500Y-92780097D01*
X171500500Y-73336103D01*
X171520185Y-73269064D01*
X171572989Y-73223309D01*
X171642147Y-73213365D01*
X171705703Y-73242390D01*
G37*
%TD.AperFunction*%
%TD*%
D29*
X212000000Y-113000000D02*
X183000000Y-113000000D01*
X100000000Y-55000000D02*
X100000000Y-128000000D01*
X220000000Y-128000000D02*
X212000000Y-128000000D01*
X220000000Y-70000000D02*
X220000000Y-55000000D01*
X212000000Y-113000000D02*
X220000000Y-113000000D01*
X100000000Y-128000000D02*
X212000000Y-128000000D01*
X212000000Y-70000000D02*
X220000000Y-70000000D01*
X100000000Y-55000000D02*
X212000000Y-55000000D01*
X212000000Y-55000000D02*
X220000000Y-55000000D01*
X183000000Y-70000000D02*
X183000000Y-113000000D01*
X220000000Y-113000000D02*
X220000000Y-128000000D01*
X212000000Y-70000000D02*
X183000000Y-70000000D01*
M02*
