M48
; DRILL file {KiCad 9.0.5} date 2025-12-11T15:04:38+0530
; FORMAT={-:-/ absolute / metric / decimal}
; #@! TF.CreationDate,2025-12-11T15:04:38+05:30
; #@! TF.GenerationSoftware,Kicad,Pcbnew,9.0.5
; #@! TF.FileFunction,Plated,1,2,PTH
FMAT,2
METRIC
; #@! TA.AperFunction,Plated,PTH,ComponentDrill
T1C0.750
; #@! TA.AperFunction,Plated,PTH,ComponentDrill
T2C0.800
; #@! TA.AperFunction,Plated,PTH,ComponentDrill
T3C0.900
; #@! TA.AperFunction,Plated,PTH,ComponentDrill
T4C1.000
; #@! TA.AperFunction,Plated,PTH,ComponentDrill
T5C1.100
; #@! TA.AperFunction,Plated,PTH,ComponentDrill
T6C1.200
; #@! TA.AperFunction,Plated,PTH,ComponentDrill
T7C1.300
; #@! TA.AperFunction,Plated,PTH,ComponentDrill
T8C2.200
; #@! TA.AperFunction,Plated,PTH,ViaDrill
T9C4.000
%
G90
G05
T1
X152.73Y-89.016
X154.0Y-88.0
X155.27Y-89.016
T2
X140.5Y-108.0
X140.5Y-113.0
X140.5Y-120.0
X140.5Y-125.0
X148.34Y-102.0
X148.42Y-93.5
X148.42Y-98.0
X158.5Y-102.0
X158.58Y-93.5
X158.58Y-98.0
T3
X157.92Y-117.0
X157.92Y-122.5
X165.0Y-88.46
X165.0Y-91.0
X165.0Y-94.46
X165.0Y-97.0
X166.5Y-66.92
X166.5Y-77.08
X168.08Y-117.0
X168.08Y-122.5
X171.84Y-122.5
X171.92Y-117.0
X182.0Y-122.5
X182.08Y-117.0
T4
X141.45Y-66.55
X141.45Y-78.55
X150.5Y-117.5
X150.5Y-122.5
X185.746Y-91.316
X186.0Y-80.648
X186.0Y-103.0
X196.668Y-118.748
X196.922Y-63.63
X205.812Y-84.966
X205.812Y-97.412
T5
X127.45Y-113.96
X127.45Y-116.5
X127.45Y-119.04
T6
X104.0Y-84.5
X104.0Y-88.0
X104.0Y-91.5
X104.0Y-95.0
X104.0Y-98.5
X104.0Y-102.0
T7
X139.5Y-72.5
X153.65Y-78.55
X153.7Y-66.5
T8
X143.5Y-102.5
X148.5Y-109.5
X180.0Y-71.0
X180.0Y-78.0
X180.0Y-103.0
X180.0Y-109.0
T9
X106.0Y-62.5
X106.0Y-121.5
X196.668Y-118.748
X196.922Y-63.63
X214.0Y-62.5
X214.0Y-121.5
M30
